<svg id="Capa_1" data-name="Capa 1" xmlns="http://www.w3.org/2000/svg" viewBox="0 0 1440 750"><g id="surface1"><rect width="1440" height="750" fill="#fff"/><rect width="1440" height="750" fill="#fff"/><rect width="1440" height="750" fill="#fff"/><path d="M71.73,450c4.34,4.8,6.06,8.75,3.81,11.42-3.42-3.58-4.34-16-10.07-10.05,6.89,2.8,8.08,16.87,16.92,19.06C76.61,464,82.66,452.55,71.73,450ZM61.65,376c2.11-1.32,3.28.05,4.13,2a17.65,17.65,0,0,1-1.32,2,18.19,18.19,0,0,1,2.82,2.35c.47,1.26,1,2,1.72,1.69,4.09,4.36,8.27,9.62,12,8-8.39-9.51-7.68-24.86-14.37-28.22A17,17,0,0,1,67.16,375c-2-5.88-4.78-12.1-6.33-12.34C62.43,367.59,58.21,370.54,61.65,376Zm15.74,62.24c4-2.13,5.32-5.07,2.66-9.32-3.76,6.22-8.2-5.24-8.4-7.77-3.48,1.71-.65,5.42-1.09,8.12C64,423.75,59.72,416,57.05,414.77c2.45,5.89,1.92,10.79,9,18.14C69.69,433.09,73.24,430,77.39,438.27Zm26.63,51c4.16-.16,11.62,2.83,3.07-2.44,7.34-7.62,9.47,1.61,14.85,9.85,7-4.51-7.55-13.25-10.44-17-2.54,2.27-5.15,3.29-7.83,2.6C112.26,491.32,99.25,483,104,489.3Zm284.6,27.42c8-.05,26.24,8.25,23.45-4.85C405.34,514.22,389.39,508.81,388.62,516.72ZM112,522.66c4.17-2.18,8.77,5.55,12.8.62,2.19-3.87,2-8.51-.66-13.91C118.17,512.62,113.22,514.48,112,522.66Zm3.07-21.15c-4.22-1.48-8.1,3-12,6.09C109.76,515.09,120.91,512.13,115.1,501.51ZM848.9,280.66c-7.28,2.7-21.67-7.3-24.39,2.13,12.54,1.59,23,1.12,25.26,2.9C849.08,283.88,849.59,282.47,848.9,280.66Zm99.45-.16c-13.49-.89-41.71-4.79-45.08.61A122.57,122.57,0,0,0,948.35,280.5ZM706.85,514.94c6.14,4.31,10.77,3.22,10.06,12.26,7.12-2.22.64-9.06,6.1-12,1,1.32,1.9,2.5,2.94,1C720.57,510.32,707.5,512.76,706.85,514.94ZM1266.46,308.6c2.13-4.28,4-8.63-.41-14.22-.47,8.17-5.26,6.38-6,13C1262,306.36,1264.2,307.46,1266.46,308.6ZM215.16,495.42c5,11,17.73,12.05,16.46,5.17C226.27,501.58,220.23,489.37,215.16,495.42ZM1348,482.07a37.69,37.69,0,0,0-3-4.13c2.78-14.33-1.91-32.45-13.28-48.58,5.76-4.28,6.78,8.69,9.84,6.57-7.48-13.7,8-19.93-8.49-36.54,4-4.91,1-12.11,7-16.33,5.92,1.91,11.62.63,18,11,6-4.33-12.89-28.81,2.07-19.63-1.52,1.75-4.6,3-2.83,5.84,6.07,1.91,4-2.78,7.56-6-5.11-6.69-9.73-4.56-14.78-9.95-4.94,4.58.3,12.55-3.79,17.39-10.71.65-16.64-10.58-23-22.5,1.15-2.94,1.32-6.23-1.31-10.44a10.19,10.19,0,0,1-1.68,4.85c-3.67-6.62-7.68-12.89-13-16.74-2.24,4.38-6.28,8.2-7.3,12.95-10.53-8.18-20.6-6.76-31-11.51-8.6-10.51-16.76-13.08-25.47-26.67-17.11-10.11-33,8.43-50.44-6.78-17.34,1.61-34.93.14-52.53-2.31,1.24-2.27.32-5-2.85-8.26-2.21,3.31-5.19-.09-7.73,0,3.66,3.31,4.07,5.74,4.85,7.47-4-.61-8.06-1.25-12.09-1.94-2-1.3-3.35-2.53-3.7-6.31-1.29.24-8.7.18-6.18,4.62-15.27-2.69-30.55-5.49-45.68-7.11-4.42-3.12-8.86-6-13.34-10.84-8.54,2.25-17.07,4.79-25.79-.39a82.73,82.73,0,0,1-12.93,4c-.33-.39-.68-.68-1-1.15-18-.78-35.84,1.15-53.44,2.8-18.57-1.65-36.76-3.55-54.77.26a19.71,19.71,0,0,0-1.16-2.29c-7.58,8.77-18.92-12.1-24.65-2.09a33.21,33.21,0,0,0-15.94.75c-.2-.6-.75-1-1.64-.42a5.06,5.06,0,0,1,.23.91,17.71,17.71,0,0,0-10.45,11c-11.05,1.91-24.1.91-37.66-1.23-2.27-3.34-4.29-6.64-5.91-9.15a6.14,6.14,0,0,1-4.6,1.2c2.6,4.11,4.94,4.92,5.11,7.14-4.21-.71-8.39-1.43-12.58-2.17a23.05,23.05,0,0,0-3.77-.64c-5.11-.88-10.16-1.7-15-2.35-2.65-.89-5.29-1.63-7.91-2.66a14.85,14.85,0,0,0-3.54,1.37c-.29,0-.6-.08-.89-.1-3.1-.22-6.69,2.12-10.24,3a4.45,4.45,0,0,0-1.09.17c-3.39.45-6.69-.75-9.61-7.27-5.68,4.09-18.26,3.64-21.58,11.68-2.56.36-5,.66-7.48.93-3.91-1.07-8.06-.88-10.17-5.28-10.41,5.3-31.95.3-48,3.91-1.15-.7-2.32-1.49-3.51-2.36-1.72,3.16-5.6,4.75-9.68,4a18.33,18.33,0,0,1-2.58-4.23c-.9.71-1.84,1.16-2.75,1.79a13.62,13.62,0,0,1-1.15-.89c.21.34.42.8.64,1.19a35.91,35.91,0,0,1-3.32,1.93c-4.08,0-8.75,1.15-12,1a9.16,9.16,0,0,0,1,2.09c-.47.06-.94.07-1.42.09a41,41,0,0,0-2-5.18c4.75-3.58-4.57-10.1-2.43-12,7.06,8.22-4.24-13.47-6.27-9.46,1.1,8,1.11,9.72,4.3,15.46a18.14,18.14,0,0,1-2.83,3.21c-2.35-2.6-4.68-3.52-6.91-1.33a33,33,0,0,0,2.71,4.18,23.56,23.56,0,0,1-6.79,1.68c-16.83,7.34-37.89,6.62-58.43,7.8-54.32,3.09-114.38,4.06-166.12-1.73,1.76-1.87,3.41-3.75,2.57-5.46a3.15,3.15,0,0,0-.37-.36c-6.93,2.73-12.87-1.25-16.56,5.33,2.38-8.21-10.42-5.86-15.65-4.55,4.78-5.17,23.6-6.21,32.21-.78.08,0,.17,0,.23-.07s.09.29.14.43a9.42,9.42,0,0,1,2.57,2.3c22.2-2.25,44.9,2.32,67.62-.39,1.24-1.9-.65-2.27-1.37-1.45-3.41-5.45,11.24-5.4,8.06,0,47,7.57,95.3.28,138.22-3.1A20.14,20.14,0,0,0,591,284c-11.06-3.13-4.94,8.55-14.33-4.13,1.78,3,3.24,6-.23,7.2.37.37.63.68.92,1A76.24,76.24,0,0,0,557,286.94c-6.61-.94-12.4-.82-16.84,1.47a21.68,21.68,0,0,0-4.82-1.53,3.1,3.1,0,0,0-.28-1.65c-1.83-.23-3.68-.54-5.42-.64a16.54,16.54,0,0,1-1.55-1.21l-4.24.22-1.1,0s-8.3.34-12.41.48a9.36,9.36,0,0,1-2.59-3.39c-3.35,2-10.24,2.18-10.24,2.18l-1.06-.05s-8.72-.43-12.9,2c-1.42,0-2.84.05-4.23.09-56-7.11-113.17,2.2-168.93,4.78-.07-.13-.08-.18-.16-.32l-1.78.38c-12.32.54-24.64.66-36.94.51a5.86,5.86,0,0,0-2.07-3.2,30,30,0,0,1-.81,3.15c-4.49-.09-9,0-13.47-.26.35-1.27.76-2.61,1.18-3.91A232.3,232.3,0,0,0,225,287.34c2.84,1.57,6.62,3.8,11.45,2,2,2.75,2.8,5.34.79,7.39-9.31-5.71-12.52-6.13-16-2.68,1.42-3.63-2.23-4.21-7.38-4l.05.09a12.46,12.46,0,0,1-3.91.15c-2.7.21-5.56.47-8.23.51-9.64,1.7-19.21,3.58-28.84,5.36a73,73,0,0,1-14.71,7.49c.38.51.81.91,1.15,1.46.71,0,1.33-.13,2-.13,1.43,2.23,2.29,5.65.89,5.6.2.47.38.9.53,1.32,3.17,3.18,4.77,4.76,8,7.94-3.15,6.43-12.48-2.09-9.28-6.68-.41-.71-.9-1.6-1.48-2.7-3.59,3,3.35,7.81-1.78,10.55-6.3-4.78-10.7-.13-15.85.55a18.29,18.29,0,0,0-4.68-7.44c3.7-2.14,9.89-6.37,16.92-8.23.2-.42.37-.86.58-1.26-15.27,4.94-30.72,5.24-46,7.84,0-.16,0-.25-.06-.45-2.71.41-5.46.72-8.32.94a22.15,22.15,0,0,0-1.7-3.24c-1.94-.64-3.83-1.12-5.54-.57a4.57,4.57,0,0,0-2.44,1.71c-2.89,4.19,5.19,1.52,7.84,8-7.78,1.06-16,1.66-24.36,2a18.55,18.55,0,0,0-1.25,1.59,21.53,21.53,0,0,1-2.76,1c.12,1.23.18,2.49.22,3.81-1.77,4.28-2.07,9.21-1.74,14.39a60.74,60.74,0,0,0,12.27.64c-1,2.75-5.63,4.18-11.72,4.76,1.6,8.58,5.5,17.79,11.81,27a.53.53,0,0,1,0,.19l.44.39c.41.59.81,1.2,1.24,1.8,2.66,3.71,6.72,7.5,11,11.11a78,78,0,0,0,12.87,12.82c-5,4.57-3.67,11.21-.48,18.41,5.85-4.32-.72-12.65,3.73-17.39a20,20,0,0,0,2.26,4.46,2.35,2.35,0,0,1-1.34.81,26.57,26.57,0,0,1,3.25,1.61,46.56,46.56,0,0,0,6.3,5.45,31.45,31.45,0,0,1,2.18,3.1c1.47,3.75,2.75,7.5,4.1,11a16.41,16.41,0,0,0-2.28,1.81c-.12-4.16-5.9-9-10.17-10-1.49,3.41,2.5,8.55,2.32,12.36-.15,0-.38-.05-.53,0-3.16-1-6.41-3.3-9.65-5.64,1.42-.54,1.61-2.18-.73-5-3.74,6.31-8.78-8.8-12.56-4.05a15,15,0,0,0,6.05,7.25c2.07,4.38,8.16,5.29,8.09,11.46,2.06.51,4.07-.18,6.06-.88a8.56,8.56,0,0,0,.29,4.53,4.77,4.77,0,0,0-1.38-.36c5.53,4.94,4.14,7.68,3,10.49-.55.1-1.11.17-1.67.27.41.53.78.91,1.15,1.33a2.07,2.07,0,0,0-.15.5c-6.26-4-2.69-12.87-8.63-11.23,6.57,10.6-4.29,15.59,3.06,26.44,5.64-2.73-.55-9.22,2.5-12.76,4.47,3.89,9.47,17.51,13.39,11-3.52-5.91-6.54-2.65-10.16-10,2.2,1,3.64.71,4.47-.28,2.59,1.1,4.15-.34,6.66.65a19.69,19.69,0,0,0,3.2,2.37,1.7,1.7,0,0,1,.19.19c-2.59,1.11-5.41-1.67-8-.89,3.86,7,6.37,9.05,8.44,9.61,1.21.69,2.41,1.36,3.59,2a1.78,1.78,0,0,1-.07.47,3,3,0,0,0,.61-.16,47.53,47.53,0,0,1,5.07,3.19c-4.7,3.83-16.57-8.84-15.15,1,7.19.34,13.07,5.64,18.24,8.23a15.22,15.22,0,0,0,0,5.35c2.46,1.9,4.71-.31,7-2.32,3.51,9.06,2.48,12.35,2.53,16.35-3.22-2.69-4.24-8.56-6.37-13-6.68,3.35,3.7,12.14.89,16.78,2,.21,4,.31,6,.38.84,3.32,2.9,7.87,7.77,15.43.81-10.89,14.6,2.9,14.6,2.9s13.76-11.25,30.2-9.29a16,16,0,0,0,1-1.78c4.13.13,9.53,1.63,13.18,1.46-4.67,3-8.23,6.28-2.28,12.59,8.4-5.47,26.18,7,28.92-4.51-8.48,2.37-17,2.47-26.13-8.13,1.92-.2,3.29-.92,3.39-2.88-4.68,1.92-9.63-1.79-14.57-5.21,1-4.34,1.48-8.79,3.44-12.81,2.9.32,5.11-1.2,3.73-4.08a1.87,1.87,0,0,1-.78,0,18.87,18.87,0,0,1,1.68-1.66c9.23,1.18,18.8,8.83,27.9,7.09-8.62-10.45-16.35-2.73-24.8-9.51,2.45-7.92.91-9.56,8.8-17.56,3.58,6.43,6.87,6.89,10.11,6.36,6.7,14.16,17.62,31.56,12.65,36.43A32.62,32.62,0,0,0,264.61,513c.67,1.27,1.21,2.5,1.93,3.79-7.26-2.15-11.6,6.29-7.49,13,7-1.15,1.05-6.49,2.77-9.34,17.46,10.84,34.09,1.73,51.1-1.81,3.73,5.91-5.21,7.38-2.54,12.92,4,2.53,42.45-11.33,24-17.43,31.49,3.74,80.51-17,111.67,7.68,20.35-17,67.56,1.9,89.24-13-.81,1-1.57,3.87-.7,4.12,12.41,3.51,35.39-11.06,56.61-2.63.9.35,4.63-.47,5.07-.57,21.43-4,41.52-5.77,62.57-.13,1.62-9.54,36.33-2,38-.14,1.71-3,34.55-3.67,41.1,3.4,6.29-2.39,26.39-.8,49.47-.44,2.55,0,5.46,0,8.52-.06a18.21,18.21,0,0,1,1.83,2.24c6.8-.13,13,.07,19.46-.07,6.25,1.55,11.09,4,12.24,8.43,20.59-.09,32.54-.86,52.17-.24,1.11-3.1-6.56-8.39-3.86-11.06a382.24,382.24,0,0,1,40.61-7.74c7.18,2.79,15.25,5.9,16.14,1.59-2.41-.23-7-1.27-11.54-2.31a528.18,528.18,0,0,1,70.05-4.07,12,12,0,0,0,7.92,9.24A18.6,18.6,0,0,1,997,499.2a527.29,527.29,0,0,1,62.28,4.37c29.78.73,67.84,6.55,99.59,6-2-6.59-10.76-4.89-7.22-8.63,5.56-5.45,12.42,5.31,18,0,1.8-1.73-.18-4.49,2.82-5.86a272.63,272.63,0,0,0,29.73,2.19c4.79,4.2,14.93,6.52,13.59.37a5,5,0,0,1-2.26-.28c18.55-.18,36.24-1.63,54.08-2.2,2.69.33,5.57.48,8.31.67a10.93,10.93,0,0,1-2.27-.83c1.7,0,3.43-.05,5.15-.05.33.39.61.74,1,1.19,5.17.53,8.7,1.6,6.77,4.95,4-2.89,7.11-2.05,15.42,4.91,2.31-1.72,1.94-4.38.31-7.35-5,1.13-8.45-1.62-11-3.53a211.52,211.52,0,0,1,38.37,4.57,28.93,28.93,0,0,0,13.13-14.35c1.61,2.49,3.13,4.26,4.78,4.31-1.52-2.53-2.86-4.75-3.87-6.54.35-1.07.71-2.14,1-3.29A38.28,38.28,0,0,1,1348,482.07ZM120.11,449.25a18.37,18.37,0,0,0-1.55-4.38,6.45,6.45,0,0,0,1.1.52c-3.91-4.52-4.12-7.87-.61-10,1.24,1.47,2.1,1,1.65-.46a6.47,6.47,0,0,1,1.07.57c-.32,4.37-1.2,9.16.14,13.67C121.31,449.17,120.71,449.2,120.11,449.25ZM111.19,351c-2.1-3.25,5.54-2.57,2.38-8.58,5-2.38,10.76,7.44,15.57.35C129.12,352.57,116.22,347.2,111.19,351Zm20.62,101.43a16.94,16.94,0,0,0-5.49-2.62,7.38,7.38,0,0,1-.68-2.91c2.07-1,4.43,3.06,6.7,5.51,0,.05,0,.09,0,.15C132.19,452.48,132,452.42,131.81,452.39Zm34.17,60c-2.28-3.33-4.59-6.58-6.68-5.56a10.44,10.44,0,0,1-.52-1.33,57.62,57.62,0,0,1,8.4.95A14.16,14.16,0,0,1,166,512.34Zm25.51-5.67a21.19,21.19,0,0,1-1.15-5.92c.28.11.5.08.74.2a18.72,18.72,0,0,0,3.06-6.95c.28-.42.54-.86.81-1.3C196.93,498.35,192.8,502.07,191.49,506.67Zm-5.38-196.78c-2.38-.86,12.34-1.64,11.64,3.61,1.45-.8.43-2-.7-3.31,1.84-1.28,4.65,2.36,7.16,4.45C199.93,321.45,192.56,313.55,186.11,309.89ZM200,299.53c7.07,7.13-3.45,8.93-12.82,4.53a5.82,5.82,0,0,1-3.68.58c-2-2.45.2-2.45,1.27-1.41.11-.12,0-.29,0-.45a23,23,0,0,1-3.61-2.67l1.93-.88c-.94-1-2.05-2.14-2.91-3.19,2.53-2.69,6.93,3.57,9-1.61a6.81,6.81,0,0,1,1.54,2.31c5-.94,10.32-.1,16.45,4.57C205,302,202.68,301.76,200,299.53Zm26.68,10.08c4-3.9,11,6,14.77.86C244.84,319.19,226.81,316.48,226.64,309.61Zm102-9.47c.11-2.36,1.39-4.87,3.66-7.45,5.68,4.57,12.27,7.65,20.74,4C350.15,302.11,336,300.61,328.64,300.14Zm556.25-17.77a5,5,0,0,1,0-1.16c2.39,3.38,4.73-1.76,7.13,3.88a.25.25,0,0,1,0,.11A35.33,35.33,0,0,0,884.89,282.37Zm458.66,133.94c5.74.54,13.4.46,10.57-8.39C1351.58,412.89,1340.63,407.68,1343.55,416.31ZM1359,436.56c4.08-2,8.28-2.24,12.45-2.64C1367.61,424.81,1356.73,430.64,1359,436.56ZM942.46,508.94c17.92.7,45.79,13.76,57.79,10.26C982.16,516.64,954.06,498.34,942.46,508.94Zm432.81-63.64-6,4.8C1374.62,459.71,1383,453.07,1375.27,445.3Zm-7.48-19.38c-2.08-2.9-.41-4.65-3.61-7.94-4.44,2.08-12.18,4.9-13.76,7.32C1356.16,424.64,1362.21,429,1367.79,425.92Zm-142.74,83.19c1.43.23,1-3.21-.2-5.57a16.94,16.94,0,0,0-2-.12,19.37,19.37,0,0,0-2.44-3.84,41.14,41.14,0,0,1-2.57,4c-7.4.89-14.29,4.27-18.33,5.89a17.65,17.65,0,0,1,3.82,7.78c5.36,0,10.45-4,16.19,1.45,5.6-2-.81-7.56,3.25-10,.42,1.13.79,2,1.13,2.77-3.86,4,4.47,13.52,8.51,7.73-2.8-3.51-4.2-5.26-7-8.76C1225.28,510,1225.18,509.56,1225.05,509.11Zm35.08,4.32c.94,1.37,1.76,2.69.23,3.3,1.41-5-13.47-6.3-11.16-5.12,6,4.46,12.22,13.15,17.46,7.14C1264.46,516.38,1262.13,512.41,1260.13,513.43Zm-175.74,12.89c16.17,5.59,49.22,11.23,53.21,3.93C1120,529.51,1101.45,518.61,1084.39,526.32Zm170-29.32c-2.76,4.77-6.33-1.94-9.26.37.75,1.13,1.69,2.32,2.53,3.49-.7.2-1.4.38-2.08.6a24.59,24.59,0,0,0,3.28,3.08c-.06.13,0,.31-.09.43-1-1.17-3.11-1.45-1.49,1.17a6.31,6.31,0,0,0,3.77-.05c8.86,5.56,19.6,5.27,13.49-2.66,2.41,2.55,4.68,3.15,6.91,2.74-5.47-5.42-10.72-7-15.84-6.74A6.61,6.61,0,0,0,1254.36,497Zm35.23,20c-.81,6.75,16.49,12,14.42,3-4.46,4.53-9.89-6.19-14.42-3" fill="#ffb300"/></g></svg>