<svg id="Capa_1" data-name="Capa 1" xmlns="http://www.w3.org/2000/svg" viewBox="0 0 50 50"><g id="Capa_1-2" data-name="Capa_1"><g id="_2478972349456" data-name=" 2478972349456"><path d="M469,454.34A14.66,14.66,0,1,1,454.34,469,14.66,14.66,0,0,1,469,454.34Zm9.42,5.24a13.3,13.3,0,1,0,3.91,9.42,13.29,13.29,0,0,0-3.91-9.42Z" transform="translate(-444 -444)" fill="#fff" fill-rule="evenodd"/><path d="M469,447.68A21.32,21.32,0,1,1,447.68,469,21.31,21.31,0,0,1,469,447.68Zm14.13,7.19A20,20,0,1,0,489,469a19.9,19.9,0,0,0-5.86-14.13Z" transform="translate(-444 -444)" fill="#fff" fill-rule="evenodd"/></g><circle cx="21.42" cy="18.35" r="2.53" fill="#fff"/><circle cx="28.43" cy="31.65" r="2.53" fill="#fff"/><path d="M463.25,471.52l7.42-8.85c1.17-1.39,3-1.75,4.15-.8h0c1.13.94,1.1,2.84-.07,4.23l-7.42,8.84c-1.17,1.39-3,1.76-4.15.81h0C462.05,474.8,462.08,472.91,463.25,471.52Z" transform="translate(-444 -444)" fill="#fff" fill-rule="evenodd"/><circle cx="4.26" cy="45.74" r="4.26" fill="#fff"/><circle cx="45.74" cy="4.26" r="4.26" fill="#fff"/></g></svg>