<svg xmlns="http://www.w3.org/2000/svg" class="icon-svg" viewBox="0 0 96 96">
        <defs>
            <linearGradient x1="50%" y1="0%" x2="50%" y2="100%" id="linearGradient-male-icon-1">
                <stop stop-color="#87E3FC" offset="0%"/>
                <stop stop-color="#4FC3F7" offset="100%"/>
            </linearGradient>
            <linearGradient x1="50%" y1="0%" x2="50%" y2="100%" id="linearGradient-male-icon-2">
                <stop stop-color="#777777" offset="0%"/>
                <stop stop-color="#424242" offset="100%"/>
            </linearGradient>
        </defs>
        <g id="icon-male" class="icon" stroke="none" stroke-width="1" fill="none" fill-rule="evenodd">
            <rect id="Rectangle" x="0" y="0" width="96" height="96"/>
            <g id="icons8-person" transform="translate(16.000000, 8.000000)">
                <path d="M42,54 C42,54 40,62 32,62 C24,62 22,54 22,54 C22,54 0,57.96875 0,80 L64,80 C64,58.046876 42,54 42,54" id="Path" fill="url(#linearGradient-male-icon-1)" fill-rule="nonzero"/>
                <path d="M32,66 C22,66 22,54 22,54 L22,42 L42,42 L42,54 C42,54 42,66 32,66 Z" id="Path" fill="#FF9800" fill-rule="nonzero"/>
                <path d="M54,30 C54,32.210938 52.210938,34 50,34 C47.789062,34 46,32.210938 46,30 C46,27.789062 47.789062,26 50,26 C52.210938,26 54,27.789062 54,30 M18,30 C18,27.789062 16.210938,26 14,26 C11.789062,26 10,27.789062 10,30 C10,32.210938 11.789062,34 14,34 C16.210938,34 18,32.210938 18,30" id="Shape" fill="#FFA726" fill-rule="nonzero"/>
                <path d="M50,18 C50,2.726562 14,8.054688 14,18 L14,32 C14,41.945312 22.054688,50 32,50 C41.945312,50 50,41.945312 50,32 L50,18 Z" id="Path" fill="#FFB74D" fill-rule="nonzero"/>
                <path d="M32,0 C19.851562,0 12,9.851562 12,22 L12,26.570312 L16,30 L16,20 L40,12 L48,20 L48,30 L52,26.515626 L52,22 C52,13.953126 49.921876,5.96875 40,4 L38,0 L32,0 Z" id="Path" fill="url(#linearGradient-male-icon-2)" fill-rule="nonzero"/>
                <path d="M38,30 C38,28.898438 38.898438,28 40,28 C41.101562,28 42,28.898438 42,30 C42,31.101562 41.101562,32 40,32 C38.898438,32 38,31.101562 38,30 M22,30 C22,31.101562 22.898438,32 24,32 C25.101562,32 26,31.101562 26,30 C26,28.898438 25.101562,28 24,28 C22.898438,28 22,28.898438 22,30" id="Shape" fill="#784719" fill-rule="nonzero"/>
                <path d="M32,66 C42,66 45.492188,58.140626 45.898438,55.140626 C43.585938,54.296876 42,54 42,54 C42,54 40,62 32,62 C24,62 22,54 22,54 C22,54 20.40625,54.289062 18.09375,55.132812 C18.507812,58.125 22,66 32,66 Z" id="Path" fill="#01579B" fill-rule="nonzero"/>
                <path d="M28,41 C28.4726978,42.1517541 30.0861163,43 32.0037631,43 C33.9113594,43 35.517908,42.1606223 36,41.0180843" id="Path" stroke="#784719" stroke-linecap="round"/>
            </g>
        </g>
    </svg>